<svg width="202" height="162" viewBox="0 0 202 162" fill="none" xmlns="http://www.w3.org/2000/svg">
<g filter="url(#filter0_d_923_6168)">
<rect x="8" y="8" width="186" height="146" rx="8" fill="white"/>
<rect x="8.5" y="8.5" width="185" height="145" rx="7.5" stroke="#E2E8F0"/>
<path d="M80.8168 88.179C79.8665 88.179 79.0227 88.0192 78.2855 87.6996C77.5526 87.38 76.9773 86.9432 76.5597 86.3892C76.1463 85.831 75.9418 85.1982 75.946 84.4908C75.9418 83.9411 76.0611 83.4361 76.304 82.9759C76.5469 82.5156 76.875 82.1321 77.2884 81.8253C77.706 81.5142 78.1705 81.3161 78.6818 81.2308V81.1413C78.0085 80.9922 77.4631 80.6491 77.0455 80.1122C76.6321 79.571 76.4276 78.9467 76.4318 78.2393C76.4276 77.5661 76.6151 76.9652 76.9943 76.4368C77.3736 75.9084 77.8935 75.4929 78.554 75.1903C79.2145 74.8835 79.9688 74.7301 80.8168 74.7301C81.6563 74.7301 82.4041 74.8835 83.0604 75.1903C83.7209 75.4929 84.2408 75.9084 84.62 76.4368C85.0036 76.9652 85.1953 77.5661 85.1953 78.2393C85.1953 78.9467 84.9844 79.571 84.5625 80.1122C84.1449 80.6491 83.6058 80.9922 82.9453 81.1413V81.2308C83.4567 81.3161 83.9169 81.5142 84.326 81.8253C84.7393 82.1321 85.0675 82.5156 85.3104 82.9759C85.5575 83.4361 85.6811 83.9411 85.6811 84.4908C85.6811 85.1982 85.4723 85.831 85.0547 86.3892C84.6371 86.9432 84.0618 87.38 83.3288 87.6996C82.6001 88.0192 81.7628 88.179 80.8168 88.179ZM80.8168 86.3509C81.3068 86.3509 81.733 86.2678 82.0952 86.1016C82.4574 85.9311 82.7386 85.6925 82.9389 85.3857C83.1392 85.0788 83.2415 84.7251 83.2457 84.3246C83.2415 83.907 83.1328 83.5384 82.9197 83.2188C82.7109 82.8949 82.4233 82.6413 82.0568 82.4581C81.6946 82.2749 81.2813 82.1832 80.8168 82.1832C80.348 82.1832 79.9304 82.2749 79.5639 82.4581C79.1974 82.6413 78.9077 82.8949 78.6946 83.2188C78.4858 83.5384 78.3835 83.907 78.3878 84.3246C78.3835 84.7251 78.4815 85.0788 78.6818 85.3857C78.8821 85.6882 79.1634 85.9247 79.5256 86.0952C79.892 86.2656 80.3224 86.3509 80.8168 86.3509ZM80.8168 80.3871C81.2173 80.3871 81.571 80.3061 81.8778 80.1442C82.1889 79.9822 82.4339 79.7564 82.6129 79.4666C82.7919 79.1768 82.8835 78.8423 82.8878 78.4631C82.8835 78.0881 82.794 77.7599 82.6193 77.4787C82.4446 77.1932 82.2017 76.9737 81.8906 76.8203C81.5795 76.6626 81.2216 76.5838 80.8168 76.5838C80.4034 76.5838 80.0391 76.6626 79.7237 76.8203C79.4126 76.9737 79.1697 77.1932 78.995 77.4787C78.8246 77.7599 78.7415 78.0881 78.7457 78.4631C78.7415 78.8423 78.8267 79.1768 79.0014 79.4666C79.1804 79.7521 79.4254 79.978 79.7365 80.1442C80.0518 80.3061 80.4119 80.3871 80.8168 80.3871ZM88.2619 88L93.8294 76.9801V76.8906H87.367V74.9091H96.2839V76.9354L90.7228 88H88.2619ZM97.5479 88.1406C97.1602 88.1406 96.8278 88.0043 96.5508 87.7315C96.2738 87.4588 96.1374 87.1264 96.1417 86.7344C96.1374 86.3509 96.2738 86.0227 96.5508 85.75C96.8278 85.4773 97.1602 85.3409 97.5479 85.3409C97.9229 85.3409 98.2489 85.4773 98.5259 85.75C98.8072 86.0227 98.9499 86.3509 98.9542 86.7344C98.9499 86.9943 98.8817 87.2308 98.7496 87.4439C98.6218 87.657 98.4513 87.8274 98.2383 87.9553C98.0295 88.0788 97.7994 88.1406 97.5479 88.1406ZM105.602 88.179C104.975 88.1747 104.364 88.0661 103.767 87.853C103.171 87.6357 102.634 87.2841 102.157 86.7983C101.679 86.3082 101.3 85.6584 101.019 84.8487C100.738 84.0348 100.599 83.027 100.603 81.8253C100.603 80.7045 100.723 79.7053 100.961 78.8274C101.2 77.9496 101.543 77.2081 101.99 76.603C102.438 75.9936 102.977 75.5291 103.608 75.2095C104.243 74.8899 104.952 74.7301 105.736 74.7301C106.559 74.7301 107.287 74.892 107.922 75.2159C108.561 75.5398 109.077 75.983 109.469 76.5455C109.861 77.1037 110.104 77.7344 110.198 78.4375H107.865C107.745 77.9347 107.5 77.5341 107.13 77.2358C106.763 76.9332 106.299 76.782 105.736 76.782C104.828 76.782 104.13 77.1761 103.64 77.9645C103.154 78.7528 102.909 79.8352 102.904 81.2116H102.994C103.203 80.8366 103.473 80.5149 103.806 80.2464C104.138 79.978 104.513 79.7713 104.931 79.6264C105.353 79.4773 105.798 79.4027 106.267 79.4027C107.034 79.4027 107.722 79.5859 108.331 79.9524C108.945 80.3189 109.431 80.8239 109.789 81.4673C110.147 82.1065 110.324 82.8395 110.319 83.6662C110.324 84.527 110.127 85.3004 109.731 85.9865C109.335 86.6683 108.783 87.2053 108.076 87.5973C107.368 87.9893 106.544 88.1832 105.602 88.179ZM105.589 86.2614C106.054 86.2614 106.469 86.1484 106.836 85.9226C107.202 85.6967 107.492 85.392 107.705 85.0085C107.918 84.625 108.022 84.1946 108.018 83.7173C108.022 83.2486 107.92 82.8246 107.711 82.4453C107.507 82.0661 107.223 81.7656 106.861 81.544C106.499 81.3224 106.086 81.2116 105.621 81.2116C105.276 81.2116 104.954 81.2777 104.656 81.4098C104.358 81.5419 104.098 81.7251 103.876 81.9595C103.654 82.1896 103.48 82.4581 103.352 82.7649C103.228 83.0675 103.164 83.3913 103.16 83.7365C103.164 84.1925 103.271 84.6122 103.48 84.9957C103.689 85.3793 103.976 85.6861 104.343 85.9162C104.709 86.1463 105.125 86.2614 105.589 86.2614ZM119.479 85.5455V84.8551C119.479 84.348 119.586 83.8814 119.799 83.4553C120.016 83.0291 120.331 82.6861 120.745 82.4261C121.158 82.1662 121.659 82.0362 122.247 82.0362C122.852 82.0362 123.359 82.1662 123.768 82.4261C124.177 82.6818 124.486 83.0227 124.695 83.4489C124.908 83.875 125.015 84.3437 125.015 84.8551V85.5455C125.015 86.0526 124.908 86.5192 124.695 86.9453C124.482 87.3714 124.169 87.7145 123.755 87.9744C123.346 88.2344 122.843 88.3643 122.247 88.3643C121.65 88.3643 121.145 88.2344 120.732 87.9744C120.319 87.7145 120.005 87.3714 119.792 86.9453C119.583 86.5192 119.479 86.0526 119.479 85.5455ZM121.147 84.8551V85.5455C121.147 85.8821 121.228 86.1911 121.39 86.4723C121.552 86.7536 121.838 86.8942 122.247 86.8942C122.66 86.8942 122.944 86.7557 123.097 86.4787C123.255 86.1974 123.333 85.8864 123.333 85.5455V84.8551C123.333 84.5142 123.259 84.2031 123.11 83.9219C122.961 83.6364 122.673 83.4936 122.247 83.4936C121.846 83.4936 121.563 83.6364 121.397 83.9219C121.23 84.2031 121.147 84.5142 121.147 84.8551ZM112.825 78.054V77.3636C112.825 76.8523 112.934 76.3835 113.151 75.9574C113.368 75.5312 113.684 75.1903 114.097 74.9347C114.51 74.6747 115.011 74.5447 115.599 74.5447C116.2 74.5447 116.705 74.6747 117.114 74.9347C117.527 75.1903 117.838 75.5312 118.047 75.9574C118.256 76.3835 118.36 76.8523 118.36 77.3636V78.054C118.36 78.5653 118.254 79.0341 118.041 79.4602C117.832 79.8821 117.521 80.2209 117.108 80.4766C116.694 80.7322 116.191 80.8601 115.599 80.8601C114.998 80.8601 114.491 80.7322 114.078 80.4766C113.669 80.2209 113.358 79.88 113.145 79.4538C112.931 79.0277 112.825 78.5611 112.825 78.054ZM114.506 77.3636V78.054C114.506 78.3949 114.585 78.706 114.743 78.9872C114.904 79.2642 115.19 79.4027 115.599 79.4027C116.008 79.4027 116.289 79.2642 116.443 78.9872C116.6 78.706 116.679 78.3949 116.679 78.054V77.3636C116.679 77.0227 116.605 76.7116 116.456 76.4304C116.306 76.1449 116.021 76.0021 115.599 76.0021C115.194 76.0021 114.911 76.1449 114.749 76.4304C114.587 76.7159 114.506 77.027 114.506 77.3636ZM113.554 88L122.554 74.9091H124.152L115.152 88H113.554Z" fill="black"/>
<path d="M27.0715 112H25.7789L29.5175 101.818H30.7902L34.5289 112H33.2362L30.1936 103.429H30.1141L27.0715 112ZM27.5487 108.023H32.759V109.116H27.5487V108.023ZM41.3648 106.074L40.3108 106.372C40.2445 106.196 40.1468 106.026 40.0175 105.86C39.8915 105.691 39.7192 105.552 39.5004 105.442C39.2817 105.333 39.0016 105.278 38.6602 105.278C38.1929 105.278 37.8035 105.386 37.4919 105.602C37.1837 105.814 37.0296 106.084 37.0296 106.412C37.0296 106.704 37.1356 106.934 37.3477 107.103C37.5599 107.272 37.8913 107.413 38.3421 107.526L39.4756 107.804C40.1584 107.97 40.6671 108.223 41.0019 108.565C41.3366 108.903 41.504 109.339 41.504 109.872C41.504 110.31 41.378 110.701 41.1262 111.045C40.8776 111.39 40.5296 111.662 40.0821 111.861C39.6347 112.06 39.1143 112.159 38.521 112.159C37.7422 112.159 37.0975 111.99 36.5871 111.652C36.0767 111.314 35.7535 110.82 35.6176 110.17L36.7313 109.892C36.8373 110.303 37.0378 110.611 37.3328 110.817C37.6311 111.022 38.0206 111.125 38.5012 111.125C39.048 111.125 39.4822 111.009 39.8037 110.777C40.1285 110.542 40.2909 110.26 40.2909 109.932C40.2909 109.667 40.1981 109.445 40.0125 109.266C39.8269 109.083 39.5419 108.947 39.1574 108.858L37.8847 108.56C37.1853 108.394 36.6716 108.137 36.3435 107.789C36.0187 107.438 35.8563 106.999 35.8563 106.472C35.8563 106.041 35.9772 105.66 36.2192 105.328C36.4645 104.997 36.7976 104.737 37.2185 104.548C37.6427 104.359 38.1233 104.264 38.6602 104.264C39.4159 104.264 40.0092 104.43 40.4401 104.761C40.8743 105.093 41.1825 105.53 41.3648 106.074ZM48.6792 106.074L47.6253 106.372C47.559 106.196 47.4612 106.026 47.3319 105.86C47.206 105.691 47.0336 105.552 46.8149 105.442C46.5961 105.333 46.3161 105.278 45.9747 105.278C45.5074 105.278 45.1179 105.386 44.8064 105.602C44.4981 105.814 44.344 106.084 44.344 106.412C44.344 106.704 44.4501 106.934 44.6622 107.103C44.8743 107.272 45.2058 107.413 45.6565 107.526L46.79 107.804C47.4728 107.97 47.9816 108.223 48.3163 108.565C48.6511 108.903 48.8184 109.339 48.8184 109.872C48.8184 110.31 48.6925 110.701 48.4406 111.045C48.192 111.39 47.844 111.662 47.3966 111.861C46.9491 112.06 46.4288 112.159 45.8355 112.159C45.0566 112.159 44.412 111.99 43.9015 111.652C43.3911 111.314 43.068 110.82 42.9321 110.17L44.0457 109.892C44.1518 110.303 44.3523 110.611 44.6473 110.817C44.9456 111.022 45.335 111.125 45.8156 111.125C46.3625 111.125 46.7967 111.009 47.1182 110.777C47.443 110.542 47.6054 110.26 47.6054 109.932C47.6054 109.667 47.5126 109.445 47.327 109.266C47.1414 109.083 46.8563 108.947 46.4719 108.858L45.1991 108.56C44.4998 108.394 43.9861 108.137 43.6579 107.789C43.3331 107.438 43.1707 106.999 43.1707 106.472C43.1707 106.041 43.2917 105.66 43.5336 105.328C43.7789 104.997 44.112 104.737 44.5329 104.548C44.9572 104.359 45.4378 104.264 45.9747 104.264C46.7304 104.264 47.3237 104.43 47.7545 104.761C48.1887 105.093 48.497 105.53 48.6792 106.074ZM55.3971 108.878V104.364H56.5704V112H55.3971V110.707H55.3176C55.1386 111.095 54.8602 111.425 54.4823 111.697C54.1045 111.965 53.6272 112.099 53.0505 112.099C52.5732 112.099 52.149 111.995 51.7778 111.786C51.4066 111.574 51.1149 111.256 50.9028 110.832C50.6907 110.404 50.5846 109.866 50.5846 109.216V104.364H51.7579V109.136C51.7579 109.693 51.9137 110.137 52.2252 110.469C52.5401 110.8 52.9411 110.966 53.4284 110.966C53.72 110.966 54.0167 110.891 54.3183 110.742C54.6232 110.593 54.8784 110.364 55.0839 110.056C55.2927 109.748 55.3971 109.355 55.3971 108.878ZM58.7194 112V104.364H59.8529V105.517H59.9324C60.0716 105.139 60.3235 104.833 60.6881 104.597C61.0527 104.362 61.4637 104.244 61.9211 104.244C62.0073 104.244 62.115 104.246 62.2442 104.249C62.3735 104.253 62.4713 104.258 62.5376 104.264V105.457C62.4978 105.447 62.4066 105.433 62.2641 105.413C62.1249 105.389 61.9774 105.378 61.8216 105.378C61.4504 105.378 61.119 105.456 60.8273 105.612C60.539 105.764 60.3103 105.976 60.1412 106.248C59.9755 106.516 59.8927 106.823 59.8927 107.168V112H58.7194ZM66.1755 112.179C65.6916 112.179 65.2525 112.088 64.858 111.906C64.4636 111.72 64.1504 111.453 63.9184 111.105C63.6864 110.754 63.5704 110.33 63.5704 109.832C63.5704 109.395 63.6566 109.04 63.8289 108.768C64.0013 108.493 64.2316 108.278 64.52 108.122C64.8083 107.966 65.1265 107.85 65.4745 107.774C65.8258 107.695 66.1788 107.632 66.5335 107.585C66.9975 107.526 67.3737 107.481 67.662 107.451C67.9537 107.418 68.1658 107.363 68.2984 107.287C68.4343 107.211 68.5022 107.078 68.5022 106.889V106.849C68.5022 106.359 68.368 105.978 68.0995 105.706C67.8344 105.434 67.4317 105.298 66.8914 105.298C66.3313 105.298 65.8921 105.421 65.574 105.666C65.2558 105.911 65.032 106.173 64.9028 106.452L63.7892 106.054C63.988 105.59 64.2532 105.229 64.5846 104.97C64.9194 104.708 65.2839 104.526 65.6784 104.423C66.0761 104.317 66.4672 104.264 66.8517 104.264C67.0969 104.264 67.3786 104.294 67.6968 104.354C68.0183 104.41 68.3282 104.528 68.6265 104.707C68.9281 104.886 69.1784 105.156 69.3772 105.517C69.5761 105.878 69.6755 106.362 69.6755 106.969V112H68.5022V110.966H68.4426C68.363 111.132 68.2304 111.309 68.0448 111.498C67.8592 111.687 67.6123 111.848 67.3041 111.98C66.9958 112.113 66.6196 112.179 66.1755 112.179ZM66.3545 111.125C66.8185 111.125 67.2096 111.034 67.5278 110.852C67.8493 110.669 68.0912 110.434 68.2536 110.146C68.4194 109.857 68.5022 109.554 68.5022 109.236V108.162C68.4525 108.222 68.3431 108.276 68.1741 108.326C68.0084 108.372 67.8161 108.414 67.5974 108.45C67.382 108.483 67.1715 108.513 66.966 108.54C66.7638 108.563 66.5998 108.583 66.4738 108.599C66.1689 108.639 65.8838 108.704 65.6187 108.793C65.3569 108.879 65.1447 109.01 64.9823 109.186C64.8232 109.358 64.7437 109.594 64.7437 109.892C64.7437 110.3 64.8945 110.608 65.1961 110.817C65.501 111.022 65.8872 111.125 66.3545 111.125ZM72.9903 107.406V112H71.817V104.364H72.9506V105.557H73.05C73.229 105.169 73.5007 104.857 73.8653 104.622C74.2299 104.384 74.7006 104.264 75.2773 104.264C75.7943 104.264 76.2467 104.37 76.6345 104.582C77.0223 104.791 77.3239 105.109 77.5393 105.537C77.7548 105.961 77.8625 106.498 77.8625 107.148V112H76.6892V107.227C76.6892 106.627 76.5334 106.16 76.2219 105.825C75.9103 105.487 75.4827 105.318 74.9392 105.318C74.5647 105.318 74.2299 105.399 73.9349 105.562C73.6433 105.724 73.4129 105.961 73.2439 106.273C73.0748 106.584 72.9903 106.962 72.9903 107.406ZM83.1088 112.159C82.3928 112.159 81.7764 111.99 81.2593 111.652C80.7423 111.314 80.3445 110.848 80.0661 110.255C79.7877 109.662 79.6485 108.984 79.6485 108.222C79.6485 107.446 79.791 106.762 80.0761 106.168C80.3644 105.572 80.7655 105.106 81.2792 104.771C81.7963 104.433 82.3995 104.264 83.0889 104.264C83.6258 104.264 84.1097 104.364 84.5406 104.562C84.9714 104.761 85.3244 105.04 85.5995 105.398C85.8746 105.756 86.0453 106.173 86.1116 106.651H84.9383C84.8488 106.303 84.6499 105.994 84.3417 105.726C84.0368 105.454 83.6258 105.318 83.1088 105.318C82.6514 105.318 82.2503 105.437 81.9056 105.676C81.5642 105.911 81.2974 106.245 81.1052 106.675C80.9163 107.103 80.8218 107.605 80.8218 108.182C80.8218 108.772 80.9146 109.286 81.1002 109.723C81.2892 110.161 81.5543 110.5 81.8957 110.742C82.2404 110.984 82.6447 111.105 83.1088 111.105C83.4137 111.105 83.6904 111.052 83.939 110.946C84.1876 110.84 84.3981 110.688 84.5704 110.489C84.7427 110.29 84.8654 110.051 84.9383 109.773H86.1116C86.0453 110.223 85.8812 110.629 85.6194 110.991C85.3609 111.349 85.0178 111.634 84.5903 111.846C84.166 112.055 83.6722 112.159 83.1088 112.159ZM91.0285 112.159C90.2927 112.159 89.658 111.997 89.1244 111.672C88.5941 111.344 88.1847 110.886 87.8964 110.3C87.6114 109.71 87.4688 109.024 87.4688 108.241C87.4688 107.459 87.6114 106.77 87.8964 106.173C88.1847 105.573 88.5858 105.106 89.0995 104.771C89.6166 104.433 90.2198 104.264 90.9092 104.264C91.3069 104.264 91.6997 104.33 92.0874 104.463C92.4752 104.596 92.8282 104.811 93.1464 105.109C93.4646 105.404 93.7181 105.795 93.907 106.283C94.096 106.77 94.1904 107.37 94.1904 108.082V108.58H88.3041V107.565H92.9972C92.9972 107.134 92.9111 106.75 92.7387 106.412C92.5697 106.074 92.3277 105.807 92.0129 105.612C91.7013 105.416 91.3334 105.318 90.9092 105.318C90.4419 105.318 90.0375 105.434 89.6961 105.666C89.358 105.895 89.0979 106.193 88.9156 106.561C88.7333 106.929 88.6421 107.323 88.6421 107.744V108.42C88.6421 108.997 88.7416 109.486 88.9404 109.887C89.1426 110.285 89.4227 110.588 89.7806 110.797C90.1386 111.002 90.5545 111.105 91.0285 111.105C91.3367 111.105 91.6151 111.062 91.8637 110.976C92.1156 110.886 92.3327 110.754 92.515 110.578C92.6973 110.399 92.8382 110.177 92.9376 109.912L94.0711 110.23C93.9518 110.615 93.7513 110.953 93.4695 111.244C93.1878 111.533 92.8398 111.758 92.4255 111.92C92.0112 112.08 91.5455 112.159 91.0285 112.159ZM99.9127 112V104.364H101.046V105.517H101.126C101.265 105.139 101.517 104.833 101.881 104.597C102.246 104.362 102.657 104.244 103.114 104.244C103.201 104.244 103.308 104.246 103.438 104.249C103.567 104.253 103.665 104.258 103.731 104.264V105.457C103.691 105.447 103.6 105.433 103.457 105.413C103.318 105.389 103.171 105.378 103.015 105.378C102.644 105.378 102.312 105.456 102.021 105.612C101.732 105.764 101.504 105.976 101.335 106.248C101.169 106.516 101.086 106.823 101.086 107.168V112H99.9127ZM107.369 112.179C106.885 112.179 106.446 112.088 106.051 111.906C105.657 111.72 105.344 111.453 105.112 111.105C104.88 110.754 104.764 110.33 104.764 109.832C104.764 109.395 104.85 109.04 105.022 108.768C105.195 108.493 105.425 108.278 105.713 108.122C106.002 107.966 106.32 107.85 106.668 107.774C107.019 107.695 107.372 107.632 107.727 107.585C108.191 107.526 108.567 107.481 108.855 107.451C109.147 107.418 109.359 107.363 109.492 107.287C109.628 107.211 109.696 107.078 109.696 106.889V106.849C109.696 106.359 109.561 105.978 109.293 105.706C109.028 105.434 108.625 105.298 108.085 105.298C107.525 105.298 107.085 105.421 106.767 105.666C106.449 105.911 106.225 106.173 106.096 106.452L104.983 106.054C105.181 105.59 105.447 105.229 105.778 104.97C106.113 104.708 106.477 104.526 106.872 104.423C107.269 104.317 107.661 104.264 108.045 104.264C108.29 104.264 108.572 104.294 108.89 104.354C109.212 104.41 109.522 104.528 109.82 104.707C110.121 104.886 110.372 105.156 110.571 105.517C110.769 105.878 110.869 106.362 110.869 106.969V112H109.696V110.966H109.636C109.556 111.132 109.424 111.309 109.238 111.498C109.053 111.687 108.806 111.848 108.497 111.98C108.189 112.113 107.813 112.179 107.369 112.179ZM107.548 111.125C108.012 111.125 108.403 111.034 108.721 110.852C109.043 110.669 109.285 110.434 109.447 110.146C109.613 109.857 109.696 109.554 109.696 109.236V108.162C109.646 108.222 109.536 108.276 109.367 108.326C109.202 108.372 109.009 108.414 108.791 108.45C108.575 108.483 108.365 108.513 108.159 108.54C107.957 108.563 107.793 108.583 107.667 108.599C107.362 108.639 107.077 108.704 106.812 108.793C106.55 108.879 106.338 109.01 106.176 109.186C106.017 109.358 105.937 109.594 105.937 109.892C105.937 110.3 106.088 110.608 106.389 110.817C106.694 111.022 107.081 111.125 107.548 111.125ZM116.331 104.364V105.358H112.374V104.364H116.331ZM113.527 102.534H114.701V109.812C114.701 110.144 114.749 110.393 114.845 110.558C114.944 110.721 115.07 110.83 115.223 110.886C115.379 110.939 115.543 110.966 115.715 110.966C115.844 110.966 115.95 110.959 116.033 110.946C116.116 110.929 116.182 110.916 116.232 110.906L116.471 111.96C116.391 111.99 116.28 112.02 116.138 112.05C115.995 112.083 115.814 112.099 115.596 112.099C115.264 112.099 114.939 112.028 114.621 111.886C114.306 111.743 114.044 111.526 113.836 111.234C113.63 110.943 113.527 110.575 113.527 110.131V102.534ZM121.216 112.159C120.48 112.159 119.845 111.997 119.312 111.672C118.782 111.344 118.372 110.886 118.084 110.3C117.799 109.71 117.656 109.024 117.656 108.241C117.656 107.459 117.799 106.77 118.084 106.173C118.372 105.573 118.773 105.106 119.287 104.771C119.804 104.433 120.407 104.264 121.097 104.264C121.494 104.264 121.887 104.33 122.275 104.463C122.663 104.596 123.016 104.811 123.334 105.109C123.652 105.404 123.906 105.795 124.095 106.283C124.283 106.77 124.378 107.37 124.378 108.082V108.58H118.492V107.565H123.185C123.185 107.134 123.099 106.75 122.926 106.412C122.757 106.074 122.515 105.807 122.2 105.612C121.889 105.416 121.521 105.318 121.097 105.318C120.629 105.318 120.225 105.434 119.884 105.666C119.546 105.895 119.285 106.193 119.103 106.561C118.921 106.929 118.83 107.323 118.83 107.744V108.42C118.83 108.997 118.929 109.486 119.128 109.887C119.33 110.285 119.61 110.588 119.968 110.797C120.326 111.002 120.742 111.105 121.216 111.105C121.524 111.105 121.803 111.062 122.051 110.976C122.303 110.886 122.52 110.754 122.703 110.578C122.885 110.399 123.026 110.177 123.125 109.912L124.259 110.23C124.139 110.615 123.939 110.953 123.657 111.244C123.375 111.533 123.027 111.758 122.613 111.92C122.199 112.08 121.733 112.159 121.216 112.159ZM133.203 112.159C132.513 112.159 131.908 111.995 131.388 111.667C130.871 111.339 130.466 110.88 130.175 110.29C129.886 109.7 129.742 109.01 129.742 108.222C129.742 107.426 129.886 106.732 130.175 106.138C130.466 105.545 130.871 105.085 131.388 104.756C131.908 104.428 132.513 104.264 133.203 104.264C133.892 104.264 134.495 104.428 135.012 104.756C135.533 105.085 135.937 105.545 136.225 106.138C136.517 106.732 136.663 107.426 136.663 108.222C136.663 109.01 136.517 109.7 136.225 110.29C135.937 110.88 135.533 111.339 135.012 111.667C134.495 111.995 133.892 112.159 133.203 112.159ZM133.203 111.105C133.726 111.105 134.157 110.971 134.495 110.702C134.833 110.434 135.083 110.081 135.246 109.643C135.408 109.206 135.489 108.732 135.489 108.222C135.489 107.711 135.408 107.236 135.246 106.795C135.083 106.354 134.833 105.998 134.495 105.726C134.157 105.454 133.726 105.318 133.203 105.318C132.679 105.318 132.248 105.454 131.91 105.726C131.572 105.998 131.322 106.354 131.159 106.795C130.997 107.236 130.916 107.711 130.916 108.222C130.916 108.732 130.997 109.206 131.159 109.643C131.322 110.081 131.572 110.434 131.91 110.702C132.248 110.971 132.679 111.105 133.203 111.105ZM141.854 104.364V105.358H137.738V104.364H141.854ZM138.971 112V103.31C138.971 102.872 139.074 102.508 139.279 102.216C139.485 101.924 139.751 101.705 140.079 101.56C140.408 101.414 140.754 101.341 141.119 101.341C141.407 101.341 141.642 101.364 141.824 101.411C142.007 101.457 142.143 101.5 142.232 101.54L141.894 102.554C141.834 102.534 141.752 102.509 141.646 102.479C141.543 102.45 141.407 102.435 141.238 102.435C140.85 102.435 140.57 102.532 140.398 102.728C140.229 102.924 140.144 103.21 140.144 103.588V112H138.971ZM148.192 114.864C147.993 114.864 147.816 114.847 147.66 114.814C147.504 114.784 147.396 114.754 147.337 114.724L147.635 113.69C147.92 113.763 148.172 113.79 148.391 113.77C148.609 113.75 148.803 113.652 148.972 113.477C149.145 113.304 149.302 113.024 149.445 112.636L149.663 112.04L146.84 104.364H148.112L150.22 110.449H150.3L152.408 104.364H153.68L150.439 113.114C150.293 113.508 150.113 113.835 149.897 114.093C149.682 114.355 149.431 114.549 149.146 114.675C148.865 114.801 148.546 114.864 148.192 114.864ZM158.058 112.159C157.369 112.159 156.764 111.995 156.243 111.667C155.726 111.339 155.322 110.88 155.03 110.29C154.742 109.7 154.598 109.01 154.598 108.222C154.598 107.426 154.742 106.732 155.03 106.138C155.322 105.545 155.726 105.085 156.243 104.756C156.764 104.428 157.369 104.264 158.058 104.264C158.747 104.264 159.351 104.428 159.868 104.756C160.388 105.085 160.792 105.545 161.081 106.138C161.372 106.732 161.518 107.426 161.518 108.222C161.518 109.01 161.372 109.7 161.081 110.29C160.792 110.88 160.388 111.339 159.868 111.667C159.351 111.995 158.747 112.159 158.058 112.159ZM158.058 111.105C158.582 111.105 159.013 110.971 159.351 110.702C159.689 110.434 159.939 110.081 160.101 109.643C160.264 109.206 160.345 108.732 160.345 108.222C160.345 107.711 160.264 107.236 160.101 106.795C159.939 106.354 159.689 105.998 159.351 105.726C159.013 105.454 158.582 105.318 158.058 105.318C157.534 105.318 157.103 105.454 156.765 105.726C156.427 105.998 156.177 106.354 156.015 106.795C155.852 107.236 155.771 107.711 155.771 108.222C155.771 108.732 155.852 109.206 156.015 109.643C156.177 110.081 156.427 110.434 156.765 110.702C157.103 110.971 157.534 111.105 158.058 111.105ZM168.122 108.878V104.364H169.295V112H168.122V110.707H168.042C167.863 111.095 167.585 111.425 167.207 111.697C166.829 111.965 166.352 112.099 165.775 112.099C165.298 112.099 164.874 111.995 164.502 111.786C164.131 111.574 163.84 111.256 163.627 110.832C163.415 110.404 163.309 109.866 163.309 109.216V104.364H164.483V109.136C164.483 109.693 164.638 110.137 164.95 110.469C165.265 110.8 165.666 110.966 166.153 110.966C166.445 110.966 166.741 110.891 167.043 110.742C167.348 110.593 167.603 110.364 167.809 110.056C168.017 109.748 168.122 109.355 168.122 108.878ZM171.444 112V104.364H172.578V105.517H172.657C172.796 105.139 173.048 104.833 173.413 104.597C173.777 104.362 174.188 104.244 174.646 104.244C174.732 104.244 174.84 104.246 174.969 104.249C175.098 104.253 175.196 104.258 175.262 104.264V105.457C175.222 105.447 175.131 105.433 174.989 105.413C174.85 105.389 174.702 105.378 174.546 105.378C174.175 105.378 173.844 105.456 173.552 105.612C173.264 105.764 173.035 105.976 172.866 106.248C172.7 106.516 172.617 106.823 172.617 107.168V112H171.444ZM72.1862 134.864V124.364H73.3197V125.577H73.4589C73.5451 125.444 73.6644 125.275 73.8169 125.07C73.9726 124.861 74.1947 124.675 74.483 124.513C74.7747 124.347 75.1691 124.264 75.6663 124.264C76.3093 124.264 76.876 124.425 77.3666 124.746C77.8571 125.068 78.2399 125.524 78.515 126.114C78.7901 126.704 78.9276 127.4 78.9276 128.202C78.9276 129.01 78.7901 129.711 78.515 130.305C78.2399 130.895 77.8588 131.352 77.3715 131.677C76.8843 131.998 76.3225 132.159 75.6862 132.159C75.1956 132.159 74.8029 132.078 74.5079 131.915C74.2129 131.75 73.9859 131.562 73.8268 131.354C73.6677 131.142 73.5451 130.966 73.4589 130.827H73.3595V134.864H72.1862ZM73.3396 128.182C73.3396 128.759 73.4241 129.267 73.5931 129.708C73.7622 130.146 74.0091 130.489 74.3339 130.737C74.6587 130.982 75.0564 131.105 75.5271 131.105C76.0176 131.105 76.4269 130.976 76.7551 130.717C77.0865 130.455 77.3351 130.104 77.5008 129.663C77.6698 129.219 77.7544 128.725 77.7544 128.182C77.7544 127.645 77.6715 127.161 77.5058 126.73C77.3434 126.296 77.0964 125.953 76.765 125.701C76.4369 125.446 76.0242 125.318 75.5271 125.318C75.0498 125.318 74.6488 125.439 74.324 125.681C73.9991 125.92 73.7539 126.254 73.5882 126.685C73.4224 127.113 73.3396 127.612 73.3396 128.182ZM80.7174 132V124.364H81.8509V125.517H81.9305C82.0697 125.139 82.3216 124.833 82.6862 124.597C83.0508 124.362 83.4617 124.244 83.9191 124.244C84.0053 124.244 84.113 124.246 84.2423 124.249C84.3715 124.253 84.4693 124.258 84.5356 124.264V125.457C84.4958 125.447 84.4047 125.433 84.2622 125.413C84.123 125.389 83.9755 125.378 83.8197 125.378C83.4485 125.378 83.117 125.456 82.8254 125.612C82.537 125.764 82.3083 125.976 82.1393 126.248C81.9736 126.516 81.8907 126.823 81.8907 127.168V132H80.7174ZM88.7963 132.159C88.1069 132.159 87.502 131.995 86.9816 131.667C86.4646 131.339 86.0602 130.88 85.7686 130.29C85.4802 129.7 85.336 129.01 85.336 128.222C85.336 127.426 85.4802 126.732 85.7686 126.138C86.0602 125.545 86.4646 125.085 86.9816 124.756C87.502 124.428 88.1069 124.264 88.7963 124.264C89.4856 124.264 90.0889 124.428 90.6059 124.756C91.1263 125.085 91.5306 125.545 91.819 126.138C92.1106 126.732 92.2565 127.426 92.2565 128.222C92.2565 129.01 92.1106 129.7 91.819 130.29C91.5306 130.88 91.1263 131.339 90.6059 131.667C90.0889 131.995 89.4856 132.159 88.7963 132.159ZM88.7963 131.105C89.3199 131.105 89.7508 130.971 90.0889 130.702C90.4269 130.434 90.6772 130.081 90.8396 129.643C91.002 129.206 91.0832 128.732 91.0832 128.222C91.0832 127.711 91.002 127.236 90.8396 126.795C90.6772 126.354 90.4269 125.998 90.0889 125.726C89.7508 125.454 89.3199 125.318 88.7963 125.318C88.2726 125.318 87.8417 125.454 87.5036 125.726C87.1656 125.998 86.9153 126.354 86.7529 126.795C86.5905 127.236 86.5093 127.711 86.5093 128.222C86.5093 128.732 86.5905 129.206 86.7529 129.643C86.9153 130.081 87.1656 130.434 87.5036 130.702C87.8417 130.971 88.2726 131.105 88.7963 131.105ZM96.931 132.159C96.2947 132.159 95.7329 131.998 95.2456 131.677C94.7584 131.352 94.3773 130.895 94.1022 130.305C93.8271 129.711 93.6895 129.01 93.6895 128.202C93.6895 127.4 93.8271 126.704 94.1022 126.114C94.3773 125.524 94.7601 125.068 95.2506 124.746C95.7412 124.425 96.3079 124.264 96.9509 124.264C97.4481 124.264 97.8408 124.347 98.1292 124.513C98.4208 124.675 98.6429 124.861 98.7954 125.07C98.9511 125.275 99.0721 125.444 99.1583 125.577H99.2577V121.818H100.431V132H99.2975V130.827H99.1583C99.0721 130.966 98.9495 131.142 98.7904 131.354C98.6313 131.562 98.4043 131.75 98.1093 131.915C97.8143 132.078 97.4215 132.159 96.931 132.159ZM97.0901 131.105C97.5608 131.105 97.9585 130.982 98.2833 130.737C98.6081 130.489 98.855 130.146 99.0241 129.708C99.1931 129.267 99.2776 128.759 99.2776 128.182C99.2776 127.612 99.1948 127.113 99.029 126.685C98.8633 126.254 98.618 125.92 98.2932 125.681C97.9684 125.439 97.5674 125.318 97.0901 125.318C96.593 125.318 96.1787 125.446 95.8472 125.701C95.5191 125.953 95.2722 126.296 95.1064 126.73C94.944 127.161 94.8628 127.645 94.8628 128.182C94.8628 128.725 94.9457 129.219 95.1114 129.663C95.2805 130.104 95.529 130.455 95.8572 130.717C96.1886 130.976 96.5996 131.105 97.0901 131.105ZM107.555 128.878V124.364H108.729V132H107.555V130.707H107.476C107.297 131.095 107.018 131.425 106.641 131.697C106.263 131.965 105.785 132.099 105.209 132.099C104.731 132.099 104.307 131.995 103.936 131.786C103.565 131.574 103.273 131.256 103.061 130.832C102.849 130.404 102.743 129.866 102.743 129.216V124.364H103.916V129.136C103.916 129.693 104.072 130.137 104.383 130.469C104.698 130.8 105.099 130.966 105.587 130.966C105.878 130.966 106.175 130.891 106.476 130.742C106.781 130.593 107.037 130.364 107.242 130.056C107.451 129.748 107.555 129.355 107.555 128.878ZM113.98 132.159C113.264 132.159 112.647 131.99 112.13 131.652C111.613 131.314 111.216 130.848 110.937 130.255C110.659 129.662 110.52 128.984 110.52 128.222C110.52 127.446 110.662 126.762 110.947 126.168C111.236 125.572 111.637 125.106 112.15 124.771C112.667 124.433 113.271 124.264 113.96 124.264C114.497 124.264 114.981 124.364 115.412 124.562C115.843 124.761 116.196 125.04 116.471 125.398C116.746 125.756 116.916 126.173 116.983 126.651H115.809C115.72 126.303 115.521 125.994 115.213 125.726C114.908 125.454 114.497 125.318 113.98 125.318C113.522 125.318 113.121 125.437 112.777 125.676C112.435 125.911 112.169 126.245 111.976 126.675C111.787 127.103 111.693 127.605 111.693 128.182C111.693 128.772 111.786 129.286 111.971 129.723C112.16 130.161 112.425 130.5 112.767 130.742C113.111 130.984 113.516 131.105 113.98 131.105C114.285 131.105 114.562 131.052 114.81 130.946C115.059 130.84 115.269 130.688 115.441 130.489C115.614 130.29 115.736 130.051 115.809 129.773H116.983C116.916 130.223 116.752 130.629 116.491 130.991C116.232 131.349 115.889 131.634 115.461 131.846C115.037 132.055 114.543 132.159 113.98 132.159ZM122.019 124.364V125.358H118.062V124.364H122.019ZM119.215 122.534H120.388V129.812C120.388 130.144 120.436 130.393 120.532 130.558C120.632 130.721 120.758 130.83 120.91 130.886C121.066 130.939 121.23 130.966 121.402 130.966C121.532 130.966 121.638 130.959 121.721 130.946C121.803 130.929 121.87 130.916 121.919 130.906L122.158 131.96C122.079 131.99 121.968 132.02 121.825 132.05C121.682 132.083 121.502 132.099 121.283 132.099C120.952 132.099 120.627 132.028 120.309 131.886C119.994 131.743 119.732 131.526 119.523 131.234C119.318 130.943 119.215 130.575 119.215 130.131V122.534ZM129.056 126.074L128.002 126.372C127.936 126.196 127.838 126.026 127.709 125.86C127.583 125.691 127.411 125.552 127.192 125.442C126.973 125.333 126.693 125.278 126.352 125.278C125.884 125.278 125.495 125.386 125.183 125.602C124.875 125.814 124.721 126.084 124.721 126.412C124.721 126.704 124.827 126.934 125.039 127.103C125.251 127.272 125.583 127.413 126.033 127.526L127.167 127.804C127.85 127.97 128.359 128.223 128.693 128.565C129.028 128.903 129.195 129.339 129.195 129.872C129.195 130.31 129.069 130.701 128.818 131.045C128.569 131.39 128.221 131.662 127.774 131.861C127.326 132.06 126.806 132.159 126.212 132.159C125.434 132.159 124.789 131.99 124.278 131.652C123.768 131.314 123.445 130.82 123.309 130.17L124.423 129.892C124.529 130.303 124.729 130.611 125.024 130.817C125.323 131.022 125.712 131.125 126.193 131.125C126.739 131.125 127.174 131.009 127.495 130.777C127.82 130.542 127.982 130.26 127.982 129.932C127.982 129.667 127.89 129.445 127.704 129.266C127.518 129.083 127.233 128.947 126.849 128.858L125.576 128.56C124.877 128.394 124.363 128.137 124.035 127.789C123.71 127.438 123.548 126.999 123.548 126.472C123.548 126.041 123.669 125.66 123.911 125.328C124.156 124.997 124.489 124.737 124.91 124.548C125.334 124.359 125.815 124.264 126.352 124.264C127.107 124.264 127.701 124.43 128.131 124.761C128.566 125.093 128.874 125.53 129.056 126.074Z" fill="black"/>
<path d="M166 87C166 69.7609 159.152 53.2279 146.962 41.0381C134.772 28.8482 118.239 22 101 22C83.7609 22 67.2279 28.8482 55.0381 41.0381C42.8482 53.2279 36 69.7609 36 87H48.9751C48.9751 73.2021 54.4563 59.9694 64.2129 50.2128C73.9694 40.4563 87.2021 34.9751 101 34.9751C114.798 34.9751 128.031 40.4563 137.787 50.2129C147.544 59.9694 153.025 73.2021 153.025 87H166Z" fill="#BFDBFE"/>
<path d="M151.893 46.5663C143.521 36.0285 132.084 28.3494 119.162 24.5888C106.239 20.8283 92.4677 21.1719 79.7486 25.5722C67.0296 29.9724 55.99 38.2123 48.1538 49.1545C40.3176 60.0967 36.0713 73.2015 36.0009 86.66L48.9758 86.7279C49.0322 75.9559 52.4309 65.467 58.7028 56.7091C64.9748 47.9512 73.8106 41.3561 83.9908 37.8342C94.1709 34.3123 105.193 34.0373 115.536 37.0472C125.879 40.057 135.033 46.2033 141.734 54.6376L151.893 46.5663Z" fill="#3B82F6"/>
<circle cx="101" cy="58" r="6" fill="#2563EB"/>
</g>
<defs>
<filter id="filter0_d_923_6168" x="0" y="0" width="202" height="162" filterUnits="userSpaceOnUse" color-interpolation-filters="sRGB">
<feFlood flood-opacity="0" result="BackgroundImageFix"/>
<feColorMatrix in="SourceAlpha" type="matrix" values="0 0 0 0 0 0 0 0 0 0 0 0 0 0 0 0 0 0 127 0" result="hardAlpha"/>
<feOffset/>
<feGaussianBlur stdDeviation="4"/>
<feComposite in2="hardAlpha" operator="out"/>
<feColorMatrix type="matrix" values="0 0 0 0 0.231373 0 0 0 0 0.509804 0 0 0 0 0.964706 0 0 0 0.12 0"/>
<feBlend mode="normal" in2="BackgroundImageFix" result="effect1_dropShadow_923_6168"/>
<feBlend mode="normal" in="SourceGraphic" in2="effect1_dropShadow_923_6168" result="shape"/>
</filter>
</defs>
</svg>
